# xmcd
#
# Track frame offsets:
#	150
#	11950
#	22662
#	35427
#	46105
#	57387
#	67807
#	82367
#	93622
#	104687
#	115940
#	126630
#	136245
#	146947
#	159765
#	171350
#	183130
#	196187
#	205552
#	215922
#
# Disc length: 3028 seconds
#
# Revision: 1
# Processed by: cddbd v1.5.1PL0 Copyright (c) Steve Scherf et al.
# Submitted via: audiograbber 1.83.01
#
DISCID=240bd214
DTITLE=Patsy Cline - Today, Tomorrow and Forever [CD1]
DYEAR=1995
DGENRE=Country
TTITLE0=Walkin' after midnight
TTITLE1=Stop, look and listen
TTITLE2=Yes, I understand
TTITLE3=I can see an angel
TTITLE4=Just out of reach
TTITLE5=Walking dream
TTITLE6=Then you'll know
TTITLE7=Don't ever leave me again
TTITLE8=I can't forget you
TTITLE9=Hungry for your love
TTITLE10=I don't wanna
TTITLE11=I'm moving along
TTITLE12=Gotta lot of rythm in my soul
TTITLE13=Just a closer walk with thee
TTITLE14=I've loved and lost again
TTITLE15=Today, tomorrow and forever
TTITLE16=If I could see the world (through the eyes of a child)
TTITLE17=Come on in (and make yourself at home)
TTITLE18=Pick me up on your way down
TTITLE19=The heart you break may be your own
EXTD=
EXTT0=
EXTT1=
EXTT2=
EXTT3=
EXTT4=
EXTT5=
EXTT6=
EXTT7=
EXTT8=
EXTT9=
EXTT10=
EXTT11=
EXTT12=
EXTT13=
EXTT14=
EXTT15=
EXTT16=
EXTT17=
EXTT18=
EXTT19=
PLAYORDER=
